<svg width="1335" height="1073" viewBox="0 0 1335 1073" fill="none" xmlns="http://www.w3.org/2000/svg">
    <rect width="1334.77" height="1072.46" fill="white"/>
    <rect x="100" y="100" width="1134.77" height="872.458" rx="24.0678" fill="#171832"/>
    <path d="M394.204 726.485C427.663 726.485 455.592 702.151 455.592 658.46C455.592 614.769 427.663 590.435 394.204 590.435C373.464 590.435 359.638 599.284 351.619 612.557H351.066V528.77H317.053V722.337H351.066V704.363H351.619C359.638 717.636 373.464 726.485 394.204 726.485ZM385.631 694.408C365.169 694.408 351.066 680.029 351.066 658.46C351.066 636.891 365.169 622.512 385.631 622.512C406.094 622.512 420.197 636.891 420.197 658.46C420.197 680.029 406.094 694.408 385.631 694.408ZM540.764 590.435C500.115 590.435 469.973 618.364 469.973 658.46C469.973 698.556 500.115 726.485 540.764 726.485C581.413 726.485 611.554 698.556 611.554 658.46C611.554 618.364 581.413 590.435 540.764 590.435ZM540.764 622.512C561.503 622.512 576.435 636.615 576.435 658.46C576.435 680.305 561.503 694.408 540.764 694.408C520.024 694.408 504.815 680.305 504.815 658.46C504.815 636.615 520.024 622.512 540.764 622.512ZM687.177 726.485C707.916 726.485 721.742 717.636 729.761 704.363H730.314V722.337H764.05V594.583H730.314V612.557H729.761C721.742 599.284 707.916 590.435 687.177 590.435C653.717 590.435 625.788 614.769 625.788 658.46C625.788 702.151 653.717 726.485 687.177 726.485ZM695.749 694.408C675.286 694.408 661.183 680.029 661.183 658.46C661.183 636.891 675.286 622.512 695.749 622.512C716.212 622.512 730.314 636.891 730.314 658.46C730.314 680.029 716.212 694.408 695.749 694.408ZM869.717 590.712C848.701 590.712 834.045 601.773 827.409 621.682H826.856V594.583H793.396V722.337H827.132V670.074C827.132 638.827 840.129 627.213 867.228 627.213H871.1V590.712H869.717ZM935.886 726.485C956.625 726.485 970.452 717.636 978.471 704.363H979.024V722.337H1012.76V528.77H979.024V612.557H978.471C970.452 599.284 956.625 590.435 935.886 590.435C902.427 590.435 874.498 614.769 874.498 658.46C874.498 702.151 902.427 726.485 935.886 726.485ZM944.458 694.408C923.996 694.408 909.893 680.029 909.893 658.46C909.893 636.891 923.996 622.512 944.458 622.512C964.921 622.512 979.024 636.891 979.024 658.46C979.024 680.029 964.921 694.408 944.458 694.408Z" fill="white"/>
    <path d="M425.635 394.564C384.986 394.564 354.845 422.493 354.845 462.589C354.845 502.685 384.986 530.614 425.635 530.614C466.284 530.614 496.425 502.685 496.425 462.589C496.425 422.493 466.284 394.564 425.635 394.564ZM425.635 426.641C446.374 426.641 461.307 440.744 461.307 462.589C461.307 484.435 446.374 498.537 425.635 498.537C404.896 498.537 389.687 484.435 389.687 462.589C389.687 440.744 404.896 426.641 425.635 426.641ZM585.451 398.712H559.181V347.555H525.168V398.712H501.664V427.194H525.168V488.859C525.168 514.576 539.548 526.743 563.605 526.743H578.538V495.219H572.731C562.776 495.219 559.181 491.071 559.181 480.84V427.194H585.451V398.712ZM605.909 332.899V526.466H639.922V463.972C639.922 436.319 652.365 426.088 669.51 426.088C686.378 426.088 696.056 434.937 696.056 455.676V526.466H730.068V447.657C730.068 410.05 709.606 394.564 681.953 394.564C663.15 394.564 649.323 402.86 640.475 416.963H639.922V332.899H605.909ZM817.094 394.564C776.998 394.564 750.728 422.217 750.728 462.866C750.728 503.515 777.827 530.614 819.582 530.614C846.405 530.614 863.55 518.171 874.887 507.663L857.743 483.052C850.553 490.242 837.833 500.473 819.582 500.473C799.949 500.473 785.57 489.136 783.634 469.502H879.035V462.866C879.035 419.175 855.807 394.564 817.094 394.564ZM815.434 421.94C832.026 421.94 843.64 431.342 844.746 447.657H784.464C787.229 429.959 799.12 421.94 815.434 421.94ZM976.834 394.841C955.818 394.841 941.162 405.902 934.526 425.812H933.973V398.712H900.513V526.466H934.249V474.203C934.249 442.956 947.246 431.342 974.345 431.342H978.216V394.841H976.834Z" fill="white"/>
</svg>
